<?xml version="1.0" encoding="UTF-8"?>
<svg xmlns="http://www.w3.org/2000/svg" width="339" height="235" viewBox="0 0 339 235" fill="none">
  <path fill-rule="evenodd" clip-rule="evenodd" d="M118.206 16.4685L127.092 -0.000534472L200.794 125.195C220.714 122.126 241.259 111.026 262.754 98.3832L210.474 111.967L204.129 101.44L287.605 90.2962C258.512 112.938 220.397 133.851 150.674 151.812L94.9112 57.3598L102.664 44.6213L162.008 142.438C194.715 138.915 243.279 120.111 281.112 92.2526L224.806 101.805L226.841 105.711L274.284 94.742C248.952 112.549 217.113 126.591 187.191 134.264M85.8828 130.487L127.852 126.996L143.123 153.392L101.374 156.672L85.8828 130.487ZM106.289 37.8426L114.977 22.2968L180.632 135.945C175.398 137.12 171.569 137.836 166.615 138.553L106.289 37.8426Z" fill="#3F4096"></path>
  <path fill-rule="evenodd" clip-rule="evenodd" d="M90.9609 191.244L101.408 160.853L110.559 160.853L102.371 183.349L131.373 160.853L139.702 160.853L100.083 191.244L90.9609 191.244Z" fill="#3F4096"></path>
  <path fill-rule="evenodd" clip-rule="evenodd" d="M155.823 160.853L145.376 191.244L136.225 191.244L144.413 168.748L115.412 191.244L107.082 191.244L146.702 160.853L155.823 160.853Z" fill="#3F4096"></path>
  <path fill-rule="evenodd" clip-rule="evenodd" d="M194.058 160.853L183.61 191.244L174.459 191.244L182.648 168.748L153.646 191.244L145.316 191.244L184.936 160.853L194.058 160.853Z" fill="#3F4096"></path>
  <path d="M1.31836 218.963L1.31836 206.078L3.91992 206.078L3.91992 211.149L9.01758 211.149L9.01758 206.078L11.6191 206.078L11.6191 218.963L9.01758 218.963L9.01758 213.329L3.91992 213.329L3.91992 218.963L1.31836 218.963ZM13.79 212.6C13.79 211.287 13.9863 210.186 14.3789 209.295C14.6719 208.639 15.0703 208.05 15.5742 207.528C16.084 207.007 16.6406 206.62 17.2441 206.368C18.0469 206.028 18.9727 205.858 20.0215 205.858C21.9199 205.858 23.4375 206.447 24.5742 207.625C25.7168 208.803 26.2881 210.44 26.2881 212.538C26.2881 214.618 25.7227 216.247 24.5918 217.425C23.4609 218.597 21.9492 219.183 20.0566 219.183C18.1406 219.183 16.6172 218.6 15.4863 217.434C14.3555 216.262 13.79 214.65 13.79 212.6ZM16.4707 212.512C16.4707 213.971 16.8076 215.078 17.4814 215.834C18.1553 216.584 19.0107 216.959 20.0479 216.959C21.085 216.959 21.9346 216.587 22.5967 215.843C23.2646 215.093 23.5986 213.971 23.5986 212.477C23.5986 211 23.2734 209.898 22.623 209.172C21.9785 208.445 21.1201 208.082 20.0479 208.082C18.9756 208.082 18.1113 208.451 17.4551 209.189C16.7988 209.922 16.4707 211.029 16.4707 212.512ZM18.7031 222.487L18.7031 220.018L21.1729 220.018L21.1729 222.487L18.7031 222.487ZM36.5713 214.226L39.0938 215.025C38.707 216.432 38.0625 217.478 37.1602 218.163C36.2637 218.843 35.124 219.183 33.7412 219.183C32.0303 219.183 30.624 218.6 29.5225 217.434C28.4209 216.262 27.8701 214.662 27.8701 212.635C27.8701 210.49 28.4238 208.826 29.5313 207.643C30.6387 206.453 32.0947 205.858 33.8994 205.858C35.4756 205.858 36.7559 206.324 37.7402 207.256C38.3262 207.807 38.7656 208.598 39.0586 209.629L36.4834 210.244C36.3311 209.576 36.0117 209.049 35.5254 208.662C35.0449 208.275 34.459 208.082 33.7676 208.082C32.8125 208.082 32.0361 208.425 31.4385 209.11C30.8467 209.796 30.5508 210.906 30.5508 212.441C30.5508 214.07 30.8438 215.23 31.4297 215.922C32.0156 216.613 32.7773 216.959 33.7148 216.959C34.4063 216.959 35.001 216.739 35.499 216.3C35.9971 215.86 36.3545 215.169 36.5713 214.226ZM49.6318 218.963L45.0264 206.078L47.8477 206.078L51.1084 215.614L54.2637 206.078L57.0234 206.078L52.4092 218.963L49.6318 218.963ZM58.2715 218.963L58.2715 206.078L60.873 206.078L60.873 218.963L58.2715 218.963ZM63.3604 218.963L63.3604 206.078L72.9141 206.078L72.9141 208.258L65.9619 208.258L65.9619 211.114L72.4307 211.114L72.4307 213.285L65.9619 213.285L65.9619 216.792L73.1602 216.792L73.1602 218.963L63.3604 218.963ZM68.4053 204.988L67.4385 205.639L65.707 205.639L67.623 204.496L69.1875 204.496L71.1035 205.639L69.3721 205.639L68.4053 204.988ZM67.2188 222.487L67.2188 220.018L69.6885 220.018L69.6885 222.487L67.2188 222.487ZM75.3926 218.963L75.3926 206.078L77.9238 206.078L83.1973 214.683L83.1973 206.078L85.6143 206.078L85.6143 218.963L83.0039 218.963L77.8096 210.561L77.8096 218.963L75.3926 218.963ZM93.3926 218.963L93.3926 206.078L95.9941 206.078L95.9941 211.149L101.092 211.149L101.092 206.078L103.693 206.078L103.693 218.963L101.092 218.963L101.092 213.329L95.9941 213.329L95.9941 218.963L93.3926 218.963ZM118.011 218.963L115.181 218.963L114.056 216.036L108.905 216.036L107.842 218.963L105.082 218.963L110.101 206.078L112.852 206.078L118.011 218.963ZM113.221 213.865L111.445 209.084L109.705 213.865L113.221 213.865ZM112.913 205.34L111.357 205.34L108.932 202.712L111.7 202.712L112.913 205.34ZM119.426 218.963L119.426 206.078L121.957 206.078L127.23 214.683L127.23 206.078L129.647 206.078L129.647 218.963L127.037 218.963L121.843 210.561L121.843 218.963L119.426 218.963ZM138.401 214.226L138.401 212.055L144.009 212.055L144.009 217.187C143.464 217.715 142.673 218.181 141.636 218.585C140.604 218.983 139.559 219.183 138.498 219.183C137.15 219.183 135.976 218.901 134.974 218.339C133.972 217.77 133.219 216.962 132.715 215.913C132.211 214.858 131.959 213.713 131.959 212.477C131.959 211.135 132.24 209.942 132.803 208.899C133.365 207.856 134.188 207.057 135.272 206.5C136.099 206.072 137.127 205.858 138.357 205.858C139.957 205.858 141.205 206.195 142.102 206.869C143.004 207.537 143.584 208.463 143.842 209.646L141.258 210.13C141.076 209.497 140.733 208.999 140.229 208.636C139.731 208.267 139.107 208.082 138.357 208.082C137.221 208.082 136.315 208.442 135.642 209.163C134.974 209.884 134.64 210.953 134.64 212.371C134.64 213.9 134.979 215.049 135.659 215.816C136.339 216.578 137.229 216.959 138.331 216.959C138.876 216.959 139.421 216.854 139.966 216.643C140.517 216.426 140.988 216.165 141.381 215.86L141.381 214.226L138.401 214.226ZM151.462 218.963L151.462 206.078L154.063 206.078L154.063 211.8L159.319 206.078L162.817 206.078L157.966 211.097L163.081 218.963L159.715 218.963L156.173 212.916L154.063 215.069L154.063 218.963L151.462 218.963ZM164.443 218.963L164.443 206.078L167.045 206.078L167.045 211.149L172.143 211.149L172.143 206.078L174.744 206.078L174.744 218.963L172.143 218.963L172.143 213.329L167.045 213.329L167.045 218.963L164.443 218.963ZM176.915 212.6C176.915 211.287 177.111 210.186 177.504 209.295C177.797 208.639 178.195 208.05 178.699 207.528C179.209 207.007 179.766 206.62 180.369 206.368C181.172 206.028 182.098 205.858 183.146 205.858C185.045 205.858 186.563 206.447 187.699 207.625C188.842 208.803 189.413 210.44 189.413 212.538C189.413 214.618 188.848 216.247 187.717 217.425C186.586 218.597 185.074 219.183 183.182 219.183C181.266 219.183 179.742 218.6 178.611 217.434C177.48 216.262 176.915 214.65 176.915 212.6ZM179.596 212.512C179.596 213.971 179.933 215.078 180.606 215.834C181.28 216.584 182.136 216.959 183.173 216.959C184.21 216.959 185.06 216.587 185.722 215.843C186.39 215.093 186.724 213.971 186.724 212.477C186.724 211 186.398 209.898 185.748 209.172C185.104 208.445 184.245 208.082 183.173 208.082C182.101 208.082 181.236 208.451 180.58 209.189C179.924 209.922 179.596 211.029 179.596 212.512ZM180.088 205.34L181.934 202.747L184.219 202.747L186.038 205.34L184.052 205.34L183.032 204.03L182.083 205.34L180.088 205.34ZM191.479 218.963L191.479 206.078L194.01 206.078L199.283 214.683L199.283 206.078L201.7 206.078L201.7 218.963L199.09 218.963L193.896 210.561L193.896 218.963L191.479 218.963ZM210.454 214.226L210.454 212.055L216.062 212.055L216.062 217.187C215.517 217.715 214.726 218.181 213.688 218.585C212.657 218.983 211.611 219.183 210.551 219.183C209.203 219.183 208.028 218.901 207.026 218.339C206.024 217.77 205.271 216.962 204.768 215.913C204.264 214.858 204.012 213.713 204.012 212.477C204.012 211.135 204.293 209.942 204.855 208.899C205.418 207.856 206.241 207.057 207.325 206.5C208.151 206.072 209.18 205.858 210.41 205.858C212.01 205.858 213.258 206.195 214.154 206.869C215.057 207.537 215.637 208.463 215.895 209.646L213.311 210.13C213.129 209.497 212.786 208.999 212.282 208.636C211.784 208.267 211.16 208.082 210.41 208.082C209.273 208.082 208.368 208.442 207.694 209.163C207.026 209.884 206.692 210.953 206.692 212.371C206.692 213.9 207.032 215.049 207.712 215.816C208.392 216.578 209.282 216.959 210.384 216.959C210.929 216.959 211.474 216.853 212.019 216.643C212.569 216.426 213.041 216.165 213.434 215.86L213.434 214.226L210.454 214.226ZM226.767 218.963L222.161 206.078L224.982 206.078L228.243 215.614L231.398 206.078L234.158 206.078L229.544 218.963L226.767 218.963ZM235.406 218.963L235.406 206.078L238.008 206.078L238.008 218.963L235.406 218.963ZM240.495 218.963L240.495 206.078L250.049 206.078L250.049 208.258L243.097 208.258L243.097 211.114L249.565 211.114L249.565 213.285L243.097 213.285L243.097 216.792L250.295 216.792L250.295 218.963L240.495 218.963ZM245.54 204.988L244.573 205.639L242.842 205.639L244.758 204.496L246.322 204.496L248.238 205.639L246.507 205.639L245.54 204.988ZM244.354 222.487L244.354 220.018L246.823 220.018L246.823 222.487L244.354 222.487ZM255.401 218.963L255.401 208.258L251.578 208.258L251.578 206.078L261.817 206.078L261.817 208.258L258.003 208.258L258.003 218.963L255.401 218.963ZM268.541 218.963L268.541 206.078L271.072 206.078L276.346 214.683L276.346 206.078L278.763 206.078L278.763 218.963L276.152 218.963L270.958 210.561L270.958 218.963L268.541 218.963ZM293.142 218.963L290.312 218.963L289.187 216.036L284.036 216.036L282.973 218.963L280.213 218.963L285.231 206.078L287.982 206.078L293.142 218.963ZM288.352 213.865L286.576 209.084L284.836 213.865L288.352 213.865ZM294.495 218.963L294.495 206.078L298.389 206.078L300.727 214.867L303.038 206.078L306.94 206.078L306.94 218.963L304.523 218.963L304.523 208.82L301.966 218.963L299.461 218.963L296.912 208.82L296.912 218.963L294.495 218.963Z" fill="#3F4096"></path>
</svg>
